<?xml version="1.0" encoding="utf-8"?>
<!-- Generator: Adobe Illustrator 24.3.0, SVG Export Plug-In . SVG Version: 6.00 Build 0)  -->
<svg version="1.1" id="Layer_1" xmlns="http://www.w3.org/2000/svg" xmlns:xlink="http://www.w3.org/1999/xlink" x="0px" y="0px"
	 viewBox="0 0 25 25" width="25" height="25" style="enable-background:new 0 0 25 25;" xml:space="preserve">
<style type="text/css">
	.st0{fill:#FFFFFF;}
</style>
<path class="st0" d="M14.69,12.5l7.36-7.36c0.6-0.6,0.6-1.59,0-2.19c-0.61-0.61-1.59-0.61-2.19,0l-7.36,7.36L5.14,2.95
	c-0.61-0.61-1.59-0.61-2.19,0c-0.6,0.6-0.6,1.59,0,2.19l7.36,7.36l-7.36,7.36c-0.6,0.6-0.6,1.59,0,2.19c0.3,0.3,0.7,0.45,1.1,0.45
	c0.4,0,0.79-0.15,1.1-0.45l7.36-7.36l7.36,7.36c0.3,0.3,0.7,0.45,1.1,0.45s0.79-0.15,1.1-0.45c0.6-0.6,0.6-1.59,0-2.19L14.69,12.5z"
	/>
</svg>
